<svg xmlns="http://www.w3.org/2000/svg" xmlns:xlink="http://www.w3.org/1999/xlink" viewBox="0 0 241.78 241.78"><defs><style>.cls-1{fill:none;}.cls-2{clip-path:url(#clip-path);}.cls-3{fill:#fdd36f;}.cls-4{fill:#fdd370;}.cls-5{fill:#fdd371;}.cls-6{fill:#fdd372;}.cls-7{fill:#fdd473;}.cls-8{fill:#fdd474;}.cls-9{fill:#fdd475;}.cls-10{fill:#fdd476;}.cls-11{fill:#fdd577;}.cls-12{fill:#fdd578;}.cls-13{fill:#fdd579;}.cls-14{fill:#fdd57a;}.cls-15{fill:#fdd67a;}.cls-16{fill:#fdd67b;}.cls-17{fill:#fdd67c;}.cls-18{fill:#fdd67d;}.cls-19{fill:#fdd77e;}.cls-20{fill:#fdd77f;}.cls-21{fill:#fdd780;}.cls-22{fill:#fdd781;}.cls-23{fill:#fdd782;}.cls-24{fill:#fdd883;}.cls-25{fill:#fdd884;}.cls-26{fill:#fdd885;}.cls-27{fill:#fdd986;}.cls-28{fill:#fdd987;}.cls-29{fill:#fdd988;}.cls-30{fill:#fdd989;}.cls-31{fill:#fdda8a;}.cls-32{fill:#fdda8b;}.cls-33{fill:#fdda8c;}.cls-34{fill:#fdda8d;}.cls-35{fill:#fddb8e;}.cls-36{fill:#fddb8f;}.cls-37{fill:#fddb90;}.cls-38{fill:#fddb91;}.cls-39{fill:#fddc92;}.cls-40{fill:#fddc93;}.cls-41{fill:#fddc94;}.cls-42{fill:#fddd95;}.cls-43{fill:#fcdd96;}.cls-44{fill:#fcdd97;}.cls-45{fill:#fcdd98;}.cls-46{fill:#fcde99;}.cls-47{fill:#fcde9a;}.cls-48{fill:#fcde9b;}.cls-49{fill:#fcde9c;}.cls-50{fill:#fcdf9d;}.cls-51{fill:#fcdf9e;}.cls-52{fill:#fcdfa0;}.cls-53{fill:#fce0a0;}.cls-54{fill:#fce0a2;}.cls-55{fill:#fce0a3;}.cls-56{fill:#fce0a4;}.cls-57{fill:#fce1a5;}.cls-58{fill:#fce1a6;}.cls-59{fill:#fce1a7;}.cls-60{fill:#fce1a8;}.cls-61{fill:#fce2a9;}.cls-62{fill:#fce2aa;}.cls-63{fill:#fce2ab;}.cls-64{fill:#fce2ac;}.cls-65{fill:#fce3ad;}.cls-66{fill:#fce3ae;}.cls-67{fill:#fce3af;}.cls-68{fill:#fce3b0;}.cls-69{fill:#fbe3b1;}.cls-70{fill:#fbe4b2;}.cls-71{fill:#fbe4b3;}.cls-72{fill:#fbe4b4;}.cls-73{fill:#fbe4b5;}.cls-74{fill:#fbe4b6;}.cls-75{fill:#fbe5b7;}.cls-76{fill:#fbe5b8;}.cls-77{fill:#fbe5b9;}.cls-78{fill:#fbe5ba;}.cls-79{fill:#fbe5bb;}.cls-80{fill:#fbe6bc;}.cls-81{fill:#fbe6bd;}.cls-82{fill:#fbe6be;}.cls-83{fill:#fbe7bf;}.cls-84{fill:#fbe7c0;}.cls-85{fill:#fbe7c1;}.cls-86{clip-path:url(#clip-path-2);}.cls-87{fill:#48484a;}.cls-88{fill:#49494b;}.cls-89{fill:#4a4a4c;}.cls-90{fill:#4b4b4d;}.cls-91{fill:#4c4c4e;}.cls-92{fill:#4d4d4f;}.cls-93{fill:#4e4e50;}.cls-94{fill:#4f4f51;}.cls-95{fill:#505052;}.cls-96{fill:#515153;}.cls-97{fill:#515254;}.cls-98{fill:#525355;}.cls-99{fill:#535456;}.cls-100{fill:#545557;}.cls-101{fill:#555658;}.cls-102{fill:#565759;}.cls-103{fill:#57585a;}.cls-104{fill:#58595b;}.cls-105{fill:#595a5c;}.cls-106{fill:#5a5a5d;}.cls-107{fill:#5a5b5e;}.cls-108{fill:#5b5c5f;}.cls-109{fill:#5c5d5f;}.cls-110{fill:#5d5e60;}.cls-111{fill:#5e5f61;}.cls-112{fill:#5f6062;}.cls-113{fill:#606163;}.cls-114{fill:#616264;}.cls-115{fill:#616365;}.cls-116{fill:#626366;}.cls-117{fill:#636467;}.cls-118{fill:#646568;}.cls-119{fill:#656668;}.cls-120{fill:#666769;}.cls-121{fill:#66686a;}.cls-122{fill:#67696b;}.cls-123{fill:#68696c;}.cls-124{fill:#696a6d;}.cls-125{fill:#6a6b6e;}.cls-126{fill:#6b6c6e;}.cls-127{fill:#6b6d6f;}.cls-128{fill:#6c6e70;}.cls-129{fill:#6d6e71;}.cls-130{clip-path:url(#clip-path-4);}.cls-131{fill:#bcbec0;}.cls-132{fill:#bbbdbf;}.cls-133{fill:#babcbe;}.cls-134{fill:#b9bbbd;}.cls-135{fill:#b8babc;}.cls-136{fill:#b7b9bb;}.cls-137{fill:#b6b8ba;}.cls-138{fill:#b5b7ba;}.cls-139{fill:#b4b6b9;}.cls-140{fill:#b3b5b8;}.cls-141{fill:#b2b4b7;}.cls-142{fill:#b1b4b6;}.cls-143{fill:#b1b3b5;}.cls-144{fill:#b0b2b4;}.cls-145{fill:#afb1b3;}.cls-146{fill:#aeb0b2;}.cls-147{fill:#adafb1;}.cls-148{fill:#acaeb0;}.cls-149{fill:#abadb0;}.cls-150{fill:#aaacaf;}.cls-151{fill:#a9abae;}.cls-152{fill:#a8aaad;}.cls-153{fill:#a7a9ac;}.cls-154{fill:#a6a8ab;}.cls-155{fill:#a5a8aa;}.cls-156{fill:#a5a7a9;}.cls-157{fill:#a4a6a8;}.cls-158{fill:#a3a5a7;}.cls-159{fill:#a2a4a7;}.cls-160{fill:#a1a3a6;}.cls-161{fill:#a0a2a5;}.cls-162{fill:#9fa1a4;}.cls-163{fill:#9ea0a3;}.cls-164{fill:#9d9fa2;}.cls-165{fill:#9c9fa1;}.cls-166{fill:#9c9ea0;}.cls-167{fill:#9b9d9f;}.cls-168{fill:#9a9c9f;}.cls-169{fill:#999b9e;}.cls-170{fill:#989a9d;}.cls-171{fill:#97999c;}.cls-172{fill:#96989b;}.cls-173{fill:#95989a;}.cls-174{fill:#959799;}.cls-175{fill:#949698;}.cls-176{fill:#939598;}.cls-177{fill:#929497;}.cls-178{fill:#919396;}.cls-179{fill:#909295;}.cls-180{fill:#8f9194;}.cls-181{fill:#8e9193;}.cls-182{fill:#8e9092;}.cls-183{fill:#8d8f91;}.cls-184{fill:#8c8e91;}.cls-185{fill:#8b8d90;}.cls-186{fill:#8a8c8f;}.cls-187{fill:#898b8e;}.cls-188{fill:#898a8d;}.cls-189{fill:#888a8c;}.cls-190{fill:#87898b;}.cls-191{fill:#86888b;}.cls-192{fill:#85878a;}.cls-193{fill:#848689;}.cls-194{fill:#838588;}.cls-195{fill:#838487;}.cls-196{fill:#828486;}.cls-197{fill:#818385;}.cls-198{fill:#808284;}.cls-199{fill:#7f8184;}.cls-200{fill:#7e8083;}.cls-201{fill:#7e7f82;}.cls-202{fill:#7d7e81;}.cls-203{fill:#7c7e80;}.cls-204{fill:#7b7d7f;}.cls-205{fill:#7a7c7e;}.cls-206{fill:#797b7d;}.cls-207{fill:#787a7d;}.cls-208{fill:#78797c;}.cls-209{fill:#77787b;}.cls-210{fill:#76777a;}.cls-211{fill:#757779;}.cls-212{fill:#747678;}.cls-213{fill:#737577;}.cls-214{fill:#727476;}.cls-215{fill:#717375;}.cls-216{fill:#717275;}.cls-217{fill:#707174;}.cls-218{fill:#6f7073;}.cls-219{fill:#6e6f72;}.cls-220,.cls-221{fill:#fff;}.cls-220{fill-rule:evenodd;}</style><clipPath id="clip-path" transform="translate(-96.44 -92.27)"><circle class="cls-1" cx="217.33" cy="213.16" r="105.83" transform="translate(-87.07 216.11) rotate(-45)"/></clipPath><clipPath id="clip-path-2" transform="translate(-96.44 -92.27)"><circle class="cls-1" cx="217.19" cy="212.82" r="93.98" transform="translate(-10.59 11.37) rotate(-2.93)"/></clipPath><clipPath id="clip-path-4" transform="translate(-96.44 -92.27)"><path class="cls-1" d="M212.85,124.54c16.65-16.65,51.39-8.91,77.59,17.29s33.94,60.94,17.29,77.59-51.39,8.91-77.59-17.29S196.2,141.19,212.85,124.54Z"/></clipPath></defs><title>Logo odd-e</title><g id="Layer_1" data-name="Layer 1"><g class="cls-2"><circle class="cls-3" cx="120.89" cy="120.89" r="120.89"/><circle class="cls-3" cx="217.33" cy="213.16" r="113.36" transform="translate(-136.66 283.19) rotate(-76.66)"/><circle class="cls-3" cx="120.89" cy="120.89" r="105.82"/><circle class="cls-4" cx="217.33" cy="213.16" r="104.57" transform="translate(-183.51 123.84) rotate(-45)"/><circle class="cls-5" cx="217.33" cy="213.16" r="103.33" transform="translate(-136.5 283.44) rotate(-76.72)"/><circle class="cls-6" cx="120.89" cy="120.89" r="102.08"/><circle class="cls-7" cx="217.33" cy="213.16" r="100.84" transform="translate(-136.5 283.44) rotate(-76.72)"/><circle class="cls-8" cx="217.33" cy="213.16" r="99.59" transform="translate(-183.51 123.84) rotate(-45)"/><circle class="cls-9" cx="217.33" cy="213.16" r="98.35" transform="translate(-183.51 123.84) rotate(-45)"/><circle class="cls-10" cx="217.33" cy="213.16" r="97.1" transform="translate(-137.29 282.18) rotate(-76.44)"/><circle class="cls-11" cx="120.89" cy="120.89" r="95.86"/><circle class="cls-12" cx="217.33" cy="213.16" r="94.61" transform="translate(-136.5 283.44) rotate(-76.72)"/><circle class="cls-13" cx="217.33" cy="213.16" r="93.37" transform="translate(-183.51 123.84) rotate(-45)"/><circle class="cls-14" cx="120.89" cy="120.89" r="92.12"/><circle class="cls-15" cx="217.33" cy="213.16" r="90.88" transform="translate(-136.5 283.44) rotate(-76.72)"/><circle class="cls-16" cx="120.89" cy="120.89" r="89.63"/><circle class="cls-17" cx="217.33" cy="213.16" r="88.39" transform="translate(-136.5 283.44) rotate(-76.72)"/><circle class="cls-18" cx="217.33" cy="213.16" r="87.14" transform="translate(-183.51 123.84) rotate(-45)"/><circle class="cls-19" cx="120.89" cy="120.89" r="85.9"/><circle class="cls-20" cx="217.33" cy="213.16" r="84.65" transform="translate(-136.5 283.44) rotate(-76.72)"/><circle class="cls-21" cx="217.33" cy="213.16" r="83.41" transform="translate(-183.51 123.84) rotate(-45)"/><circle class="cls-22" cx="217.33" cy="213.16" r="82.16" transform="translate(-137.12 282.45) rotate(-76.5)"/><circle class="cls-23" cx="120.89" cy="120.89" r="80.92"/><circle class="cls-24" cx="217.33" cy="213.16" r="79.68" transform="translate(-136.83 282.92) rotate(-76.6)"/><circle class="cls-25" cx="217.33" cy="213.16" r="78.43" transform="translate(-136.27 283.81) rotate(-76.8)"/><circle class="cls-26" cx="217.33" cy="213.16" r="77.19" transform="translate(-183.51 123.84) rotate(-45)"/><circle class="cls-27" cx="217.33" cy="213.16" r="75.94" transform="translate(-136.4 283.59) rotate(-76.75)"/><circle class="cls-28" cx="120.89" cy="120.89" r="74.7"/><circle class="cls-29" cx="217.33" cy="213.16" r="73.45" transform="translate(-136.5 283.44) rotate(-76.72)"/><circle class="cls-30" cx="217.33" cy="213.16" r="72.21" transform="translate(-136.5 283.44) rotate(-76.72)"/><circle class="cls-31" cx="217.33" cy="213.16" r="70.96" transform="translate(-135.9 284.38) rotate(-76.93)"/><circle class="cls-32" cx="217.33" cy="213.16" r="69.72" transform="translate(-136.5 283.44) rotate(-76.72)"/><circle class="cls-33" cx="120.89" cy="120.89" r="68.47"/><circle class="cls-34" cx="217.33" cy="213.16" r="67.23" transform="translate(-136.5 283.44) rotate(-76.72)"/><circle class="cls-35" cx="217.33" cy="213.16" r="65.98" transform="translate(-136.5 283.44) rotate(-76.72)"/><circle class="cls-36" cx="217.33" cy="213.16" r="64.74" transform="translate(-138.31 280.53) rotate(-76.07)"/><circle class="cls-37" cx="217.33" cy="213.16" r="63.49" transform="translate(-136.28 283.79) rotate(-76.8)"/><circle class="cls-38" cx="120.89" cy="120.89" r="62.25"/><circle class="cls-39" cx="217.33" cy="213.16" r="61" transform="translate(-128.27 295.79) rotate(-79.51)"/><circle class="cls-40" cx="217.33" cy="213.16" r="59.76" transform="translate(-136.81 282.94) rotate(-76.61)"/><circle class="cls-41" cx="217.33" cy="213.16" r="58.51" transform="translate(-136.5 283.44) rotate(-76.72)"/><circle class="cls-42" cx="217.33" cy="213.16" r="57.27" transform="translate(-136.5 283.44) rotate(-76.72)"/><circle class="cls-43" cx="120.89" cy="120.89" r="56.02"/><circle class="cls-44" cx="217.33" cy="213.16" r="54.78" transform="translate(-136.5 283.44) rotate(-76.72)"/><circle class="cls-45" cx="217.33" cy="213.16" r="53.53" transform="translate(-136.5 283.44) rotate(-76.72)"/><circle class="cls-46" cx="120.89" cy="120.89" r="52.29"/><circle class="cls-47" cx="217.33" cy="213.16" r="51.04" transform="translate(-137.17 282.37) rotate(-76.48)"/><circle class="cls-48" cx="120.89" cy="120.89" r="49.8"/><circle class="cls-49" cx="217.33" cy="213.16" r="48.55" transform="translate(-136.5 283.44) rotate(-76.72)"/><circle class="cls-50" cx="217.33" cy="213.16" r="47.31" transform="translate(-139.97 277.81) rotate(-75.47)"/><circle class="cls-50" cx="120.89" cy="120.89" r="46.06"/><circle class="cls-51" cx="217.33" cy="213.16" r="44.82" transform="translate(-136.5 283.44) rotate(-76.72)"/><circle class="cls-52" cx="217.33" cy="213.16" r="43.57" transform="translate(-99.88 330.49) rotate(-87.96)"/><path class="cls-53" d="M175,213.16a42.33,42.33,0,1,1,42.32,42.33A42.33,42.33,0,0,1,175,213.16Z" transform="translate(-96.44 -92.27)"/><circle class="cls-54" cx="217.33" cy="213.16" r="41.08" transform="translate(-136.35 283.67) rotate(-76.77)"/><circle class="cls-55" cx="120.89" cy="120.89" r="39.84"/><circle class="cls-56" cx="217.33" cy="213.16" r="38.59" transform="translate(-136.5 283.44) rotate(-76.72)"/><circle class="cls-57" cx="217.33" cy="213.16" r="37.35" transform="translate(-136.5 283.44) rotate(-76.72)"/><path class="cls-58" d="M181.23,213.16a36.11,36.11,0,1,1,36.1,36.1A36.1,36.1,0,0,1,181.23,213.16Z" transform="translate(-96.44 -92.27)"/><path class="cls-59" d="M182.48,213.16A34.86,34.86,0,1,1,217.33,248,34.85,34.85,0,0,1,182.48,213.16Z" transform="translate(-96.44 -92.27)"/><circle class="cls-60" cx="120.89" cy="120.89" r="33.61"/><path class="cls-61" d="M185,213.16a32.37,32.37,0,1,1,32.36,32.37A32.36,32.36,0,0,1,185,213.16Z" transform="translate(-96.44 -92.27)"/><circle class="cls-62" cx="217.33" cy="213.16" r="31.12" transform="translate(-136.5 283.44) rotate(-76.72)"/><path class="cls-63" d="M187.46,213.16A29.88,29.88,0,1,1,217.33,243,29.87,29.87,0,0,1,187.46,213.16Z" transform="translate(-96.44 -92.27)"/><path class="cls-64" d="M188.7,213.16a28.64,28.64,0,1,1,28.63,28.63A28.63,28.63,0,0,1,188.7,213.16Z" transform="translate(-96.44 -92.27)"/><circle class="cls-65" cx="120.89" cy="120.89" r="27.39"/><path class="cls-66" d="M191.19,213.16a26.15,26.15,0,1,1,26.14,26.14A26.14,26.14,0,0,1,191.19,213.16Z" transform="translate(-96.44 -92.27)"/><circle class="cls-67" cx="217.33" cy="213.16" r="24.9" transform="translate(-135.72 284.67) rotate(-76.99)"/><path class="cls-68" d="M193.68,213.16a23.66,23.66,0,1,1,23.65,23.65A23.65,23.65,0,0,1,193.68,213.16Z" transform="translate(-96.44 -92.27)"/><path class="cls-69" d="M194.93,213.16a22.41,22.41,0,1,1,22.4,22.41A22.4,22.4,0,0,1,194.93,213.16Z" transform="translate(-96.44 -92.27)"/><circle class="cls-70" cx="120.89" cy="120.89" r="21.16"/><path class="cls-71" d="M197.42,213.16a19.92,19.92,0,1,1,19.91,19.92A19.91,19.91,0,0,1,197.42,213.16Z" transform="translate(-96.44 -92.27)"/><circle class="cls-72" cx="217.33" cy="213.16" r="18.67" transform="translate(-101.35 -87.15) rotate(-1.34)"/><path class="cls-73" d="M199.91,213.16a17.43,17.43,0,1,1,17.42,17.43A17.42,17.42,0,0,1,199.91,213.16Z" transform="translate(-96.44 -92.27)"/><path class="cls-74" d="M201.15,213.16a16.19,16.19,0,1,1,16.18,16.18A16.18,16.18,0,0,1,201.15,213.16Z" transform="translate(-96.44 -92.27)"/><circle class="cls-75" cx="217.33" cy="213.16" r="14.94" transform="translate(-136.5 283.44) rotate(-76.72)"/><path class="cls-76" d="M203.64,213.16a13.7,13.7,0,1,1,13.69,13.69A13.7,13.7,0,0,1,203.64,213.16Z" transform="translate(-96.44 -92.27)"/><circle class="cls-77" cx="120.89" cy="120.89" r="12.45"/><path class="cls-78" d="M206.13,213.16a11.21,11.21,0,1,1,11.2,11.2A11.21,11.21,0,0,1,206.13,213.16Z" transform="translate(-96.44 -92.27)"/><path class="cls-79" d="M207.38,213.16a10,10,0,1,1,10,10A10,10,0,0,1,207.38,213.16Z" transform="translate(-96.44 -92.27)"/><circle class="cls-80" cx="217.33" cy="213.16" r="8.71" transform="translate(-136.5 283.44) rotate(-76.72)"/><path class="cls-81" d="M209.86,213.16a7.47,7.47,0,1,1,7.47,7.47A7.47,7.47,0,0,1,209.86,213.16Z" transform="translate(-96.44 -92.27)"/><circle class="cls-81" cx="120.89" cy="120.89" r="6.22"/><path class="cls-82" d="M212.35,213.16a5,5,0,1,1,5,5A5,5,0,0,1,212.35,213.16Z" transform="translate(-96.44 -92.27)"/><path class="cls-83" d="M213.6,213.16a3.74,3.74,0,1,1,3.73,3.73A3.74,3.74,0,0,1,213.6,213.16Z" transform="translate(-96.44 -92.27)"/><path class="cls-84" d="M214.84,213.16a2.49,2.49,0,1,1,2.49,2.49A2.49,2.49,0,0,1,214.84,213.16Z" transform="translate(-96.44 -92.27)"/><path class="cls-85" d="M216.09,213.16a1.25,1.25,0,1,1,1.24,1.24A1.25,1.25,0,0,1,216.09,213.16Z" transform="translate(-96.44 -92.27)"/></g><g class="cls-86"><circle class="cls-87" cx="217.19" cy="212.82" r="107.35" transform="translate(-183.32 123.64) rotate(-45)"/><circle class="cls-87" cx="217.19" cy="212.82" r="100.66" transform="translate(-143.79 -29.39) rotate(-14.87)"/><circle class="cls-87" cx="217.19" cy="212.82" r="93.97" transform="translate(-183.32 123.64) rotate(-45)"/><circle class="cls-88" cx="217.19" cy="212.82" r="91.78" transform="translate(-183.32 123.64) rotate(-45)"/><circle class="cls-89" cx="217.19" cy="212.82" r="89.6" transform="translate(-183.32 123.64) rotate(-45)"/><circle class="cls-90" cx="217.19" cy="212.82" r="87.41" transform="translate(-183.32 123.64) rotate(-45)"/><circle class="cls-91" cx="217.19" cy="212.82" r="85.23" transform="translate(-183.32 123.64) rotate(-45)"/><circle class="cls-92" cx="217.19" cy="212.82" r="83.04" transform="translate(-183.32 123.64) rotate(-45)"/><circle class="cls-93" cx="217.19" cy="212.82" r="80.86" transform="translate(-183.32 123.64) rotate(-45)"/><circle class="cls-94" cx="120.75" cy="120.56" r="78.67"/><circle class="cls-95" cx="217.19" cy="212.82" r="76.49" transform="translate(-183.32 123.64) rotate(-45)"/><circle class="cls-96" cx="217.19" cy="212.82" r="74.3" transform="translate(-183.32 123.64) rotate(-45)"/><circle class="cls-97" cx="217.19" cy="212.82" r="72.12" transform="translate(-175.89 53.7) rotate(-31.72)"/><circle class="cls-98" cx="217.19" cy="212.82" r="69.93" transform="translate(-124.12 300.85) rotate(-80.78)"/><circle class="cls-99" cx="217.19" cy="212.82" r="67.74" transform="translate(-175.89 53.7) rotate(-31.72)"/><circle class="cls-100" cx="217.19" cy="212.82" r="65.56" transform="translate(-183.32 123.64) rotate(-45)"/><circle class="cls-101" cx="217.19" cy="212.82" r="63.37" transform="translate(-174.44 47.53) rotate(-30.52)"/><circle class="cls-102" cx="217.19" cy="212.82" r="61.19" transform="translate(-124.12 300.85) rotate(-80.78)"/><circle class="cls-103" cx="217.19" cy="212.82" r="59" transform="translate(-176.16 54.9) rotate(-31.95)"/><circle class="cls-104" cx="217.19" cy="212.82" r="56.82" transform="translate(-183.32 123.64) rotate(-45)"/><circle class="cls-105" cx="217.19" cy="212.82" r="54.63" transform="translate(-183.32 123.64) rotate(-45)"/><circle class="cls-106" cx="217.19" cy="212.82" r="52.45" transform="translate(-137.48 281.14) rotate(-76.29)"/><circle class="cls-107" cx="217.19" cy="212.82" r="50.26" transform="translate(-183.32 123.64) rotate(-45)"/><circle class="cls-108" cx="217.19" cy="212.82" r="48.08" transform="translate(-175.89 53.7) rotate(-31.72)"/><circle class="cls-109" cx="217.19" cy="212.82" r="45.89" transform="translate(-175.89 53.7) rotate(-31.72)"/><circle class="cls-110" cx="120.75" cy="120.56" r="43.71"/><circle class="cls-111" cx="217.19" cy="212.82" r="41.52" transform="translate(-183.32 123.64) rotate(-45)"/><path class="cls-112" d="M177.86,212.82a39.34,39.34,0,1,1,39.33,39.34A39.33,39.33,0,0,1,177.86,212.82Z" transform="translate(-96.44 -92.27)"/><circle class="cls-113" cx="217.19" cy="212.82" r="37.15" transform="translate(-183.32 123.64) rotate(-45)"/><circle class="cls-114" cx="217.19" cy="212.82" r="34.96" transform="translate(-122.01 303.69) rotate(-81.45)"/><path class="cls-115" d="M184.41,212.82a32.78,32.78,0,1,1,32.78,32.78A32.78,32.78,0,0,1,184.41,212.82Z" transform="translate(-96.44 -92.27)"/><path class="cls-116" d="M186.6,212.82a30.59,30.59,0,1,1,30.59,30.6A30.59,30.59,0,0,1,186.6,212.82Z" transform="translate(-96.44 -92.27)"/><path class="cls-117" d="M188.78,212.82a28.41,28.41,0,1,1,28.41,28.41A28.41,28.41,0,0,1,188.78,212.82Z" transform="translate(-96.44 -92.27)"/><circle class="cls-118" cx="217.19" cy="212.82" r="26.22" transform="translate(-136.28 283.04) rotate(-76.72)"/><path class="cls-119" d="M193.15,212.82a24,24,0,1,1,24,24A24,24,0,0,1,193.15,212.82Z" transform="translate(-96.44 -92.27)"/><path class="cls-120" d="M195.34,212.82a21.85,21.85,0,1,1,21.85,21.86A21.85,21.85,0,0,1,195.34,212.82Z" transform="translate(-96.44 -92.27)"/><path class="cls-121" d="M197.52,212.82a19.67,19.67,0,1,1,19.67,19.67A19.67,19.67,0,0,1,197.52,212.82Z" transform="translate(-96.44 -92.27)"/><path class="cls-122" d="M199.71,212.82a17.48,17.48,0,1,1,17.48,17.49A17.49,17.49,0,0,1,199.71,212.82Z" transform="translate(-96.44 -92.27)"/><path class="cls-123" d="M201.89,212.82a15.3,15.3,0,1,1,15.3,15.3A15.3,15.3,0,0,1,201.89,212.82Z" transform="translate(-96.44 -92.27)"/><path class="cls-124" d="M204.08,212.82a13.11,13.11,0,1,1,13.11,13.12A13.11,13.11,0,0,1,204.08,212.82Z" transform="translate(-96.44 -92.27)"/><path class="cls-125" d="M206.26,212.82a10.93,10.93,0,1,1,10.93,10.93A10.93,10.93,0,0,1,206.26,212.82Z" transform="translate(-96.44 -92.27)"/><path class="cls-126" d="M208.45,212.82a8.74,8.74,0,1,1,8.74,8.74A8.74,8.74,0,0,1,208.45,212.82Z" transform="translate(-96.44 -92.27)"/><path class="cls-127" d="M210.64,212.82a6.56,6.56,0,1,1,6.55,6.56A6.55,6.55,0,0,1,210.64,212.82Z" transform="translate(-96.44 -92.27)"/><path class="cls-128" d="M212.82,212.82a4.37,4.37,0,1,1,4.37,4.37A4.37,4.37,0,0,1,212.82,212.82Z" transform="translate(-96.44 -92.27)"/><path class="cls-129" d="M215,212.82a2.19,2.19,0,1,1,2.18,2.19A2.18,2.18,0,0,1,215,212.82Z" transform="translate(-96.44 -92.27)"/></g><g class="cls-86"><g class="cls-130"><g class="cls-130"><polygon class="cls-131" points="107.63 23.49 220.06 23.49 220.06 135.93 107.63 135.93 107.63 23.49 107.63 23.49"/><ellipse class="cls-131" cx="244.5" cy="187.75" rx="67.43" ry="89.91" transform="translate(-157.59 135.6) rotate(-45)"/><ellipse class="cls-132" cx="244.54" cy="187.76" rx="66.67" ry="88.9" transform="translate(-157.58 135.63) rotate(-45)"/><ellipse class="cls-133" cx="244.52" cy="187.76" rx="65.91" ry="87.89" transform="translate(-157.59 135.62) rotate(-45)"/><ellipse class="cls-134" cx="244.53" cy="187.74" rx="65.16" ry="86.88" transform="translate(-157.58 135.62) rotate(-45)"/><ellipse class="cls-135" cx="244.51" cy="187.74" rx="64.4" ry="85.86" transform="translate(-157.59 135.6) rotate(-45)"/><ellipse class="cls-136" cx="244.54" cy="187.75" rx="63.64" ry="84.86" transform="translate(-157.58 135.63) rotate(-45)"/><path class="cls-137" d="M185.24,128.47c24.56-24.56,71-17.92,103.75,14.82s39.38,79.2,14.82,103.75-71,17.93-103.75-14.82S160.68,153,185.24,128.47Z" transform="translate(-96.44 -92.27)"/><ellipse class="cls-138" cx="244.53" cy="187.73" rx="62.13" ry="82.83" transform="translate(-157.57 135.62) rotate(-45)"/><ellipse class="cls-139" cx="244.51" cy="187.74" rx="61.37" ry="81.82" transform="translate(-157.58 135.6) rotate(-45)"/><ellipse class="cls-140" cx="244.52" cy="187.77" rx="60.61" ry="80.82" transform="translate(-157.6 135.62) rotate(-45)"/><ellipse class="cls-141" cx="244.53" cy="187.75" rx="59.85" ry="79.8" transform="translate(-157.58 135.62) rotate(-45)"/><ellipse class="cls-142" cx="244.51" cy="187.76" rx="59.09" ry="78.79" transform="translate(-157.59 135.61) rotate(-45)"/><path class="cls-143" d="M189.52,132.73c22.78-22.78,65.87-16.63,96.25,13.75S322.3,220,299.52,242.73,233.64,259.36,203.26,229,166.73,155.51,189.52,132.73Z" transform="translate(-96.44 -92.27)"/><path class="cls-144" d="M190.24,133.48c22.48-22.49,65-16.41,95,13.57s36.06,72.52,13.57,95-65,16.41-95-13.58S167.75,156,190.24,133.48Z" transform="translate(-96.44 -92.27)"/><ellipse class="cls-145" cx="244.53" cy="187.74" rx="56.82" ry="75.76" transform="translate(-157.58 135.62) rotate(-45)"/><path class="cls-146" d="M191.65,134.89c21.9-21.89,63.31-16,92.51,13.22s35.1,70.6,13.21,92.5-63.31,16-92.5-13.22S169.76,156.79,191.65,134.89Z" transform="translate(-96.44 -92.27)"/><path class="cls-147" d="M192.38,135.58c21.6-21.6,62.45-15.76,91.25,13s34.63,69.65,13,91.25-62.45,15.76-91.25-13S170.78,157.18,192.38,135.58Z" transform="translate(-96.44 -92.27)"/><ellipse class="cls-148" cx="244.53" cy="187.76" rx="54.55" ry="72.73" transform="translate(-157.59 135.62) rotate(-45)"/><ellipse class="cls-149" cx="244.51" cy="187.77" rx="53.79" ry="71.72" transform="translate(-157.6 135.61) rotate(-45)"/><path class="cls-150" d="M194.52,137.74c20.71-20.71,59.88-15.11,87.5,12.5s33.21,66.8,12.5,87.51-59.89,15.11-87.5-12.5S173.8,158.45,194.52,137.74Z" transform="translate(-96.44 -92.27)"/><ellipse class="cls-151" cx="244.53" cy="187.75" rx="52.28" ry="69.7" transform="translate(-157.58 135.62) rotate(-45)"/><path class="cls-152" d="M196,139.18c20.12-20.12,58.18-14.68,85,12.15s32.27,64.88,12.15,85-58.18,14.68-85-12.14S175.84,159.3,196,139.18Z" transform="translate(-96.44 -92.27)"/><path class="cls-153" d="M196.66,139.9c19.82-19.82,57.31-14.46,83.75,12s31.78,63.93,12,83.75-57.32,14.47-83.75-12S176.83,159.73,196.66,139.9Z" transform="translate(-96.44 -92.27)"/><ellipse class="cls-154" cx="244.52" cy="187.74" rx="50" ry="66.67" transform="translate(-157.58 135.61) rotate(-45)"/><path class="cls-155" d="M198.1,141.31c19.23-19.23,55.61-14,81.25,11.61s30.84,62,11.61,81.25-55.61,14-81.25-11.6S178.87,160.55,198.1,141.31Z" transform="translate(-96.44 -92.27)"/><ellipse class="cls-156" cx="244.54" cy="187.75" rx="48.49" ry="64.65" transform="translate(-157.58 135.63) rotate(-45)"/><path class="cls-157" d="M199.52,142.75c18.64-18.64,53.89-13.6,78.75,11.26s29.89,60.11,11.25,78.75-53.9,13.6-78.75-11.25S180.88,161.39,199.52,142.75Z" transform="translate(-96.44 -92.27)"/><ellipse class="cls-158" cx="244.52" cy="187.73" rx="46.97" ry="62.63" transform="translate(-157.57 135.61) rotate(-45)"/><path class="cls-159" d="M201,144.17c18-18,52.19-13.18,76.25,10.89s28.94,58.2,10.9,76.25-52.19,13.17-76.26-10.89S182.91,162.21,201,144.17Z" transform="translate(-96.44 -92.27)"/><ellipse class="cls-160" cx="244.51" cy="187.77" rx="45.46" ry="60.61" transform="translate(-157.61 135.61) rotate(-45)"/><ellipse class="cls-161" cx="244.52" cy="187.75" rx="44.7" ry="59.6" transform="translate(-157.59 135.61) rotate(-45)"/><ellipse class="cls-162" cx="244.5" cy="187.76" rx="43.94" ry="58.59" transform="translate(-157.6 135.6) rotate(-45)"/><path class="cls-163" d="M203.82,147c16.87-16.87,48.77-12.31,71.25,10.18s27.05,54.38,10.18,71.25S236.49,240.76,214,218.27,187,163.88,203.82,147Z" transform="translate(-96.44 -92.27)"/><path class="cls-164" d="M204.52,147.77c16.57-16.57,47.91-12.09,70,10s26.57,53.43,10,70-47.91,12.09-70-10S188,164.34,204.52,147.77Z" transform="translate(-96.44 -92.27)"/><path class="cls-165" d="M205.24,148.46c16.27-16.28,47-11.88,68.75,9.82s26.09,52.48,9.82,68.75-47.05,11.88-68.75-9.82S189,164.73,205.24,148.46Z" transform="translate(-96.44 -92.27)"/><ellipse class="cls-166" cx="244.51" cy="187.75" rx="40.91" ry="54.55" transform="translate(-157.59 135.6) rotate(-45)"/><path class="cls-167" d="M206.68,149.87c15.69-15.68,45.35-11.44,66.26,9.46s25.14,50.58,9.46,66.26-45.34,11.44-66.25-9.47S191,165.55,206.68,149.87Z" transform="translate(-96.44 -92.27)"/><path class="cls-168" d="M207.38,150.62c15.38-15.39,44.49-11.23,65,9.29s24.67,49.61,9.29,65-44.49,11.23-65-9.29S192,166,207.38,150.62Z" transform="translate(-96.44 -92.27)"/><ellipse class="cls-169" cx="244.5" cy="187.77" rx="38.64" ry="51.52" transform="translate(-157.61 135.6) rotate(-45)"/><ellipse class="cls-170" cx="244.51" cy="187.75" rx="37.88" ry="50.51" transform="translate(-157.59 135.6) rotate(-45)"/><path class="cls-171" d="M209.52,152.75c14.5-14.5,41.92-10.58,61.25,8.75s23.25,46.75,8.75,61.25S237.6,233.33,218.27,214,195,167.25,209.52,152.75Z" transform="translate(-96.44 -92.27)"/><path class="cls-172" d="M210.24,153.47c14.2-14.2,41.07-10.36,60,8.57s22.77,45.8,8.57,60-41.06,10.36-60-8.58S196,167.67,210.24,153.47Z" transform="translate(-96.44 -92.27)"/><path class="cls-173" d="M210.93,154.19c13.91-13.91,40.21-10.15,58.75,8.39s22.3,44.85,8.4,58.76-40.21,10.14-58.75-8.4S197,168.1,210.93,154.19Z" transform="translate(-96.44 -92.27)"/><path class="cls-174" d="M211.69,154.88c13.61-13.61,39.35-9.93,57.5,8.22S291,207,277.4,220.6s-39.35,9.93-57.5-8.22S198.08,168.49,211.69,154.88Z" transform="translate(-96.44 -92.27)"/><ellipse class="cls-175" cx="244.52" cy="187.75" rx="34.09" ry="45.46" transform="translate(-157.58 135.62) rotate(-45)"/><path class="cls-176" d="M213.1,156.32c13-13,37.64-9.5,55,7.86s20.88,42,7.86,55-37.64,9.5-55-7.86S200.08,169.34,213.1,156.32Z" transform="translate(-96.44 -92.27)"/><path class="cls-177" d="M213.8,157c12.72-12.72,36.78-9.28,53.75,7.68s20.4,41,7.67,53.75-36.78,9.29-53.75-7.68S201.07,169.76,213.8,157Z" transform="translate(-96.44 -92.27)"/><ellipse class="cls-178" cx="244.55" cy="187.73" rx="31.82" ry="42.43" transform="translate(-157.57 135.63) rotate(-45)"/><path class="cls-179" d="M215.24,158.45c12.13-12.13,35.08-8.85,51.25,7.33s19.45,39.12,7.32,51.25-35.07,8.85-51.25-7.33S203.11,170.58,215.24,158.45Z" transform="translate(-96.44 -92.27)"/><ellipse class="cls-180" cx="244.51" cy="187.77" rx="30.3" ry="40.41" transform="translate(-157.61 135.6) rotate(-45)"/><path class="cls-181" d="M216.66,159.89c11.54-11.54,33.36-8.42,48.75,7s18.5,37.21,7,48.75-33.36,8.42-48.75-7S205.12,171.43,216.66,159.89Z" transform="translate(-96.44 -92.27)"/><path class="cls-182" d="M217.38,160.61c11.24-11.24,32.51-8.2,47.5,6.79s18,36.26,6.79,47.5-32.51,8.21-47.5-6.79S206.14,171.86,217.38,160.61Z" transform="translate(-96.44 -92.27)"/><ellipse class="cls-183" cx="244.53" cy="187.73" rx="28.03" ry="37.38" transform="translate(-157.57 135.61) rotate(-45)"/><path class="cls-184" d="M218.8,162.05c10.65-10.65,30.79-7.77,45,6.43s17.08,34.35,6.43,45-30.8,7.77-45-6.43S208.15,172.7,218.8,162.05Z" transform="translate(-96.44 -92.27)"/><path class="cls-185" d="M219.52,162.75c10.35-10.36,29.94-7.56,43.75,6.25s16.6,33.39,6.25,43.75-29.94,7.56-43.75-6.25S209.16,173.1,219.52,162.75Z" transform="translate(-96.44 -92.27)"/><ellipse class="cls-186" cx="244.53" cy="187.75" rx="25.76" ry="34.35" transform="translate(-157.59 135.62) rotate(-45)"/><path class="cls-187" d="M221,164.16c9.77-9.77,28.24-7.13,41.25,5.89s15.66,31.49,5.9,41.25-28.23,7.13-41.25-5.89S211.2,173.92,221,164.16Z" transform="translate(-96.44 -92.27)"/><path class="cls-188" d="M221.66,164.91c9.47-9.47,27.37-6.91,40,5.71s15.18,30.53,5.71,40-27.37,6.91-40-5.71S212.19,174.37,221.66,164.91Z" transform="translate(-96.44 -92.27)"/><path class="cls-189" d="M222.38,165.6c9.17-9.18,26.52-6.7,38.75,5.53s14.71,29.58,5.54,38.76-26.53,6.69-38.75-5.54S213.21,174.77,222.38,165.6Z" transform="translate(-96.44 -92.27)"/><path class="cls-190" d="M223.1,166.32c8.88-8.88,25.67-6.48,37.5,5.35s14.24,28.63,5.36,37.51-25.66,6.47-37.5-5.36S214.23,175.19,223.1,166.32Z" transform="translate(-96.44 -92.27)"/><path class="cls-191" d="M223.8,167c8.58-8.58,24.81-6.26,36.25,5.18s13.76,27.67,5.18,36.25-24.81,6.26-36.25-5.18S215.22,175.62,223.8,167Z" transform="translate(-96.44 -92.27)"/><path class="cls-192" d="M224.52,167.76c8.28-8.29,23.95-6,35,5s13.28,26.72,5,35-24,6.05-35-5S216.23,176,224.52,167.76Z" transform="translate(-96.44 -92.27)"/><path class="cls-193" d="M225.21,168.48c8-8,23.1-5.83,33.75,4.82s12.81,25.76,4.82,33.75-23.09,5.83-33.75-4.82S217.23,176.47,225.21,168.48Z" transform="translate(-96.44 -92.27)"/><path class="cls-194" d="M226,169.17c7.7-7.69,22.25-5.62,32.5,4.64s12.34,24.81,4.65,32.5-22.25,5.62-32.5-4.64S218.27,176.86,226,169.17Z" transform="translate(-96.44 -92.27)"/><path class="cls-195" d="M226.66,169.89c7.4-7.4,21.39-5.4,31.25,4.46s11.86,23.86,4.46,31.25S241,211,231.12,201.14,219.26,177.29,226.66,169.89Z" transform="translate(-96.44 -92.27)"/><path class="cls-196" d="M227.38,170.61c7.1-7.1,20.53-5.18,30,4.29s11.39,22.9,4.29,30-20.54,5.18-30-4.29S220.28,177.71,227.38,170.61Z" transform="translate(-96.44 -92.27)"/><path class="cls-197" d="M228.1,171.33c6.81-6.81,19.68-5,28.75,4.11s10.92,21.94,4.11,28.75-19.67,5-28.75-4.11S221.3,178.13,228.1,171.33Z" transform="translate(-96.44 -92.27)"/><path class="cls-198" d="M228.83,172c6.51-6.51,18.82-4.75,27.5,3.93s10.43,21,3.92,27.5-18.82,4.75-27.5-3.93S222.32,178.53,228.83,172Z" transform="translate(-96.44 -92.27)"/><path class="cls-199" d="M229.52,172.74c6.21-6.21,18-4.53,26.25,3.75s10,20,3.75,26.25-18,4.54-26.25-3.75S223.31,179,229.52,172.74Z" transform="translate(-96.44 -92.27)"/><path class="cls-200" d="M230.21,173.49c5.92-5.92,17.11-4.32,25,3.57s9.49,19.09,3.58,25-17.11,4.32-25-3.57S224.3,179.41,230.21,173.49Z" transform="translate(-96.44 -92.27)"/><path class="cls-201" d="M231,174.18c5.62-5.62,16.25-4.1,23.75,3.39s9,18.13,3.39,23.76-16.26,4.1-23.75-3.4S225.34,179.8,231,174.18Z" transform="translate(-96.44 -92.27)"/><path class="cls-202" d="M231.66,174.9c5.32-5.33,15.4-3.89,22.5,3.22s8.54,17.17,3.21,22.5-15.39,3.88-22.5-3.22S226.33,180.23,231.66,174.9Z" transform="translate(-96.44 -92.27)"/><path class="cls-203" d="M232.38,175.59c5-5,14.55-3.67,21.25,3s8.07,16.22,3,21.25-14.55,3.67-21.25-3S227.35,180.62,232.38,175.59Z" transform="translate(-96.44 -92.27)"/><path class="cls-204" d="M233.08,176.34c4.73-4.73,13.68-3.45,20,2.86s7.6,15.27,2.86,20-13.69,3.45-20-2.86S228.34,181.07,233.08,176.34Z" transform="translate(-96.44 -92.27)"/><ellipse class="cls-205" cx="244.54" cy="187.75" rx="11.36" ry="15.15" transform="translate(-157.58 135.61) rotate(-44.99)"/><path class="cls-206" d="M234.52,177.75c4.14-4.14,12-3,17.5,2.5s6.64,13.36,2.5,17.5-12,3-17.5-2.5S230.38,181.89,234.52,177.75Z" transform="translate(-96.44 -92.27)"/><path class="cls-207" d="M235.24,178.44c3.85-3.84,11.12-2.8,16.25,2.33s6.17,12.4,2.32,16.25-11.12,2.8-16.25-2.33S231.4,182.29,235.24,178.44Z" transform="translate(-96.44 -92.27)"/><path class="cls-208" d="M235.94,179.19c3.55-3.55,10.26-2.59,15,2.15s5.69,11.45,2.14,15-10.27,2.59-15-2.15S232.39,182.74,235.94,179.19Z" transform="translate(-96.44 -92.27)"/><path class="cls-209" d="M236.69,179.88c3.25-3.25,9.41-2.37,13.75,2s5.22,10.5,2,13.75-9.41,2.38-13.75-2S233.43,183.14,236.69,179.88Z" transform="translate(-96.44 -92.27)"/><path class="cls-210" d="M237.38,180.6c3-2.95,8.56-2.15,12.5,1.79s4.75,9.54,1.79,12.5-8.56,2.16-12.5-1.79S234.42,183.56,237.38,180.6Z" transform="translate(-96.44 -92.27)"/><path class="cls-211" d="M238.08,181.32c2.66-2.66,7.7-1.94,11.25,1.61s4.27,8.59,1.6,11.25-7.7,1.94-11.25-1.61S235.41,184,238.08,181.32Z" transform="translate(-96.44 -92.27)"/><path class="cls-212" d="M238.8,182c2.37-2.36,6.84-1.72,10,1.43s3.79,7.64,1.43,10-6.85,1.72-10-1.44S236.43,184.41,238.8,182Z" transform="translate(-96.44 -92.27)"/><path class="cls-213" d="M239.52,182.76c2.07-2.07,6-1.51,8.75,1.26s3.32,6.67,1.25,8.75-6,1.51-8.75-1.26S237.45,184.84,239.52,182.76Z" transform="translate(-96.44 -92.27)"/><path class="cls-214" d="M240.24,183.46c1.78-1.78,5.14-1.3,7.5,1.07s2.85,5.72,1.07,7.5-5.13,1.29-7.49-1.07S238.47,185.23,240.24,183.46Z" transform="translate(-96.44 -92.27)"/><path class="cls-215" d="M240.94,184.18c1.48-1.48,4.27-1.08,6.25.89s2.37,4.77.89,6.25-4.28,1.08-6.25-.89S239.46,185.65,240.94,184.18Z" transform="translate(-96.44 -92.27)"/><path class="cls-216" d="M241.66,184.9c1.18-1.19,3.42-.87,5,.71s1.9,3.82.71,5-3.42.87-5-.71S240.48,186.08,241.66,184.9Z" transform="translate(-96.44 -92.27)"/><path class="cls-217" d="M242.38,185.62c.89-.89,2.57-.65,3.75.53s1.43,2.87.54,3.75-2.57.65-3.75-.53S241.5,186.5,242.38,185.62Z" transform="translate(-96.44 -92.27)"/><path class="cls-218" d="M243.11,186.31a2.1,2.1,0,1,1,.35,2.5A1.82,1.82,0,0,1,243.11,186.31Z" transform="translate(-96.44 -92.27)"/><path class="cls-219" d="M243.8,187a.9.9,0,0,1,1.25.18.79.79,0,1,1-1.07,1.07A.9.9,0,0,1,243.8,187Z" transform="translate(-96.44 -92.27)"/></g></g></g><path class="cls-220" d="M175.47,201.22a16.23,16.23,0,0,0-1-6,11.8,11.8,0,0,0-3.05-4.49,13.81,13.81,0,0,0-4.9-2.86,19.76,19.76,0,0,0-6.53-1q-7.8,0-11.9,3.84t-4.11,10.48v12.26q0,6.65,4.11,10.48T160,227.8a19.76,19.76,0,0,0,6.53-1,13.81,13.81,0,0,0,4.9-2.86,11.8,11.8,0,0,0,3.05-4.49,16.23,16.23,0,0,0,1-6ZM150.2,215.17V199.54A10.84,10.84,0,0,1,151,195a7.87,7.87,0,0,1,2.21-2.92,8.47,8.47,0,0,1,3.05-1.55,11.44,11.44,0,0,1,3.37-.41,12.5,12.5,0,0,1,3.41.39,7.68,7.68,0,0,1,5.28,4.46,11.09,11.09,0,0,1,.84,4.58v15.63a11,11,0,0,1-.84,4.57,7.73,7.73,0,0,1-5.28,4.47,12.48,12.48,0,0,1-3.41.38,11.44,11.44,0,0,1-3.37-.41,8.47,8.47,0,0,1-3.05-1.55,7.87,7.87,0,0,1-2.21-2.92A10.83,10.83,0,0,1,150.2,215.17Z" transform="translate(-96.44 -92.27)"/><path class="cls-220" d="M207.83,214.19V186.9h-6.26l-.11,15.25a23.3,23.3,0,0,0-3.46-1.33,14.53,14.53,0,0,0-4.32-.58,16.39,16.39,0,0,0-6.1,1,11,11,0,0,0-4.14,2.83,11.84,11.84,0,0,0-2.45,4.39,20.81,20.81,0,0,0-.93,5.72,20.24,20.24,0,0,0,.93,5.66,11.34,11.34,0,0,0,2.45,4.27,10.78,10.78,0,0,0,4.14,2.73,17.33,17.33,0,0,0,6.1,1,19,19,0,0,0,6.39-1,10.66,10.66,0,0,0,6.84-7A20.63,20.63,0,0,0,207.83,214.19Zm-6.26-.93v1.91a16.21,16.21,0,0,1-.54,4.54,7.42,7.42,0,0,1-1.55,2.92,5.73,5.73,0,0,1-2.43,1.55,9.1,9.1,0,0,1-3.1.41,9.69,9.69,0,0,1-3.11-.38,5.39,5.39,0,0,1-2.42-1.53,7.32,7.32,0,0,1-1.55-2.94,16.14,16.14,0,0,1-.55-4.57v-1.91a16.74,16.74,0,0,1,.55-4.63,8,8,0,0,1,1.55-3.08,5.58,5.58,0,0,1,2.42-1.66,8.68,8.68,0,0,1,3.11-.43,8,8,0,0,1,3.1.46,5.76,5.76,0,0,1,2.43,1.69,8.1,8.1,0,0,1,1.55,3A16.82,16.82,0,0,1,201.57,213.26Z" transform="translate(-96.44 -92.27)"/><path class="cls-220" d="M240.32,214.19V186.9h-6.26L234,202.15a23.74,23.74,0,0,0-3.46-1.33,14.6,14.6,0,0,0-4.33-.58,16.39,16.39,0,0,0-6.1,1,11,11,0,0,0-4.14,2.83,12,12,0,0,0-2.45,4.39,21.21,21.21,0,0,0-.92,5.72,20.63,20.63,0,0,0,.92,5.66,11.47,11.47,0,0,0,2.45,4.27,10.78,10.78,0,0,0,4.14,2.73,17.33,17.33,0,0,0,6.1,1,19.06,19.06,0,0,0,6.4-1,10.62,10.62,0,0,0,6.83-7A20.24,20.24,0,0,0,240.32,214.19Zm-6.26-.93v1.91a15.82,15.82,0,0,1-.55,4.54,7.3,7.3,0,0,1-1.55,2.92,5.7,5.7,0,0,1-2.42,1.55,9.15,9.15,0,0,1-3.11.41,9.63,9.63,0,0,1-3.1-.38,5.39,5.39,0,0,1-2.42-1.53,7.33,7.33,0,0,1-1.56-2.94,16.54,16.54,0,0,1-.54-4.57v-1.91a17.16,17.16,0,0,1,.54-4.63,8,8,0,0,1,1.56-3.08,5.58,5.58,0,0,1,2.42-1.66,8.63,8.63,0,0,1,3.1-.43,8.06,8.06,0,0,1,3.11.46,5.73,5.73,0,0,1,2.42,1.69,8,8,0,0,1,1.55,3A16.41,16.41,0,0,1,234.06,213.26Z" transform="translate(-96.44 -92.27)"/><rect class="cls-221" x="149.57" y="118.98" width="13.61" height="4.08"/><path class="cls-220" d="M291.72,215.93c0-.22,0-.5,0-.85s0-.6,0-.79a12.81,12.81,0,0,0-3.48-9.34,12.87,12.87,0,0,0-4.2-2.88,14.23,14.23,0,0,0-5.44-1.12,13.7,13.7,0,0,0-9.4,4.11,13.28,13.28,0,0,0-3.73,9.34,14.7,14.7,0,0,0,1.17,5.39,13.33,13.33,0,0,0,2.86,4.23,13.11,13.11,0,0,0,4.22,2.75,14.13,14.13,0,0,0,5.31,1,8.82,8.82,0,0,0,3.65-.55c1.16-.43,2.31-.91,3.43-1.41l-.43-1.8a22.6,22.6,0,0,1-5.45.92,8.59,8.59,0,0,1-4.08-.87,8.06,8.06,0,0,1-2.65-2.18,8.73,8.73,0,0,1-1.47-2.88,18,18,0,0,1-.62-3Zm-13.29-11.87h.11a6.46,6.46,0,0,1,4.9,2q1.9,2,2.34,6.48H271.51a15.17,15.17,0,0,1,.66-3.16,9.52,9.52,0,0,1,1.33-2.69,6.86,6.86,0,0,1,2.07-1.91A5.46,5.46,0,0,1,278.43,204.06Z" transform="translate(-96.44 -92.27)"/></g></svg>