<svg id="Layer_1" data-name="Layer 1" xmlns="http://www.w3.org/2000/svg" viewBox="0 0 288 191.63"><defs><style>.cls-1{font-size:19.7px;fill:#171c21;font-family:CCWhenSuddenly-Regular, CCWhenSuddenly;}.cls-2{fill:#1b1d21;}.cls-3{fill:#d5e4ea;}.cls-4{fill:#231f20;}.cls-5{font-size:36px;font-family:YuppyTC-Regular-B5pc-H, Yuppy TC;}</style></defs><title>Scrum-Master-logo</title><text class="cls-1" transform="translate(131.18 86.69) scale(0.84 1)">SM</text><circle class="cls-2" cx="140.16" cy="26.44" r="2.46"/><circle class="cls-2" cx="159.5" cy="26.44" r="2.46"/><path class="cls-3" d="M161.27,59.3c12-6.82,16.23-22.86,11.72-35.78,0-.08-3.29-5.47-3.2-4.94-.41-.34.34,3.1.69,3.81,6.53,13.07-5.35,44.2-23.63,39.48a18.2,18.2,0,0,0,14.24-3.06C162.15,58.21,161.24,59.32,161.27,59.3Z" transform="translate(-5.7 -3.32)"/><path class="cls-3" d="M118.42,32.46c.53-5.41,3.46-16.83,7.74-19.24-17.19,9.65-9.68,47.07,10.72,46.7-8.76-5.44-15.85-12-17.67-20.28A26.23,26.23,0,0,1,118.42,32.46Zm14.17,26.21" transform="translate(-5.7 -3.32)"/><path class="cls-3" d="M176.19,128.41c-4.63-4.91-9.93-17.67-8.7-31.74-10.73,13.87,29.39,56.8-39.74,19.33C144,141.09,172.82,131.71,187,151c-4-4.75-8.78-18.07-10.81-22.53" transform="translate(-5.7 -3.32)"/><path class="cls-3" d="M172.47,66A116.52,116.52,0,0,0,167,54.48c-.92.87-.58,1-1.5,1.89,3.36,6,27.65,46,9.61,44.92,20-1.7.42-35.71-2.6-35.25C170.63,61.74,172.66,66,172.47,66Zm8.92,21.29c0-.11,0,0,0,0Z" transform="translate(-5.7 -3.32)"/><path class="cls-3" d="M129.2,86.45c-.17,5-11.11,15.76-13.16,13.74C125,102,128.87,95.84,129.2,86.45Z" transform="translate(-5.7 -3.32)"/><path class="cls-3" d="M109.76,95.17c-.36-5,19.68-32.36,17.59-38.23C119.14,68.25,109.08,85.8,109.76,95.17Z" transform="translate(-5.7 -3.32)"/><path class="cls-2" d="M130.6,58.77,129,58a24.28,24.28,0,0,1-4.3-2.6,17.18,17.18,0,0,1-5-6.06,37.68,37.68,0,0,1-1.81-4.5,29.54,29.54,0,0,1-1.54-5.18,40.25,40.25,0,0,1-.09-12.18,22.29,22.29,0,0,1,.71-3.29A29.26,29.26,0,0,1,118.26,21,29.16,29.16,0,0,1,122,14.89c3-3.46,6.71-7.1,11.47-9.19a26.66,26.66,0,0,1,7.45-2,45.18,45.18,0,0,1,7.64-.31A28.38,28.38,0,0,1,162.9,8.53a31.57,31.57,0,0,1,9.9,10.92,29.39,29.39,0,0,1,2.39,6.62,31.43,31.43,0,0,1,1.18,6.61,27.25,27.25,0,0,1-2.22,12,35.73,35.73,0,0,1-5.58,8.55,28,28,0,0,1-5.83,5.21,17.72,17.72,0,0,1-4.53,2.13,15.66,15.66,0,0,1-1.72.43,16.77,16.77,0,0,0,1.68-.53,17.54,17.54,0,0,0,4.34-2.37A28.45,28.45,0,0,0,168,52.73a29.49,29.49,0,0,0,4.89-8.56,27.15,27.15,0,0,0,1.52-11.34,30.49,30.49,0,0,0-1.4-6.11,27,27,0,0,0-2.48-6A28.93,28.93,0,0,0,161.24,11a25.53,25.53,0,0,0-12.92-4.54c-4.68-.11-9.58.18-13.7,2A32.6,32.6,0,0,0,124,16.73a31.09,31.09,0,0,0-3.46,5.39,27,27,0,0,0-1.32,2.82,20.49,20.49,0,0,0-.78,2.94,39,39,0,0,0-.46,11.56,32.61,32.61,0,0,0,1.2,5,35.86,35.86,0,0,0,1.48,4.46A16.49,16.49,0,0,0,125,55a26.57,26.57,0,0,0,4,2.89Z" transform="translate(-5.7 -3.32)"/><path class="cls-2" d="M126.76,56.94S125,61.08,122,67.08c-1.48,3-3.27,6.48-5.25,10.16-1,1.84-2,3.76-3.08,5.67a43,43,0,0,0-2.91,5.65,12.19,12.19,0,0,0-.54,5.78,6.7,6.7,0,0,0,.49,1,7.69,7.69,0,0,0,.82,1.13,14.73,14.73,0,0,0,2.09,2,13.62,13.62,0,0,0,2.32,1.5,5.82,5.82,0,0,0,1.12.42l.13,0h0c-.13,0,0,0,0,0h.1l.36,0h.53A14.23,14.23,0,0,0,122.93,99a9.14,9.14,0,0,0,3.35-2.52A15,15,0,0,0,128,93.53c.76-1.8,1.08-6.58,1.08-6.58s.07,4,0,4.55-.21,1.28-.45,2.24a12.82,12.82,0,0,1-1.3,3.41,9.58,9.58,0,0,1-3.49,3.4,14.35,14.35,0,0,1-5.37,2.16,6.84,6.84,0,0,1-.91.08h-.64l-.23,0a7.48,7.48,0,0,1-1.72-.47,13.56,13.56,0,0,1-3-1.66,16.79,16.79,0,0,1-2.61-2.27,11.34,11.34,0,0,1-1.16-1.45,7,7,0,0,1-.93-2,15.13,15.13,0,0,1,.54-7.35,17,17,0,0,1,1.58-3.26l1.67-2.87c1.09-1.91,2.23-3.74,3.31-5.54,2.16-3.58,4.24-6.89,6.07-9.69C124.1,60.56,126.76,56.94,126.76,56.94Z" transform="translate(-5.7 -3.32)"/><path class="cls-2" d="M167.11,54.41a75.08,75.08,0,0,1,6,9.32c1.66,2.89,3.46,6.31,5.46,9.89,1,1.79,2.09,3.59,3.21,5.41A52.28,52.28,0,0,1,185.14,85a21.06,21.06,0,0,1,1.17,3.35,12.29,12.29,0,0,1,.44,3.73,13.64,13.64,0,0,1-2.45,6.66,9.27,9.27,0,0,1-2.68,2.28,9.68,9.68,0,0,1-3.09,1.27,11.06,11.06,0,0,1-5.82-.94,11.92,11.92,0,0,1-3.87-2.79,14.78,14.78,0,0,1-2.14-2.89,15.81,15.81,0,0,1-1-2.06l-.28-.75a19.27,19.27,0,0,0,1.75,2.47,13.79,13.79,0,0,0,6.15,4.37A10.13,10.13,0,0,0,178,100a7.44,7.44,0,0,0,2.18-1.15,7.73,7.73,0,0,0,1.87-1.74,11.87,11.87,0,0,0,1.68-5.27,9.25,9.25,0,0,0-.4-2.76,20.28,20.28,0,0,0-1.05-2.87,51.34,51.34,0,0,0-3-5.62c-1.15-1.88-2.13-3.83-3.07-5.7-1.85-3.75-3.35-7.32-4.64-10.36C169,58.43,167.11,54.41,167.11,54.41Z" transform="translate(-5.7 -3.32)"/><path class="cls-2" d="M167.66,96.39c0,2.51,0,5,.05,7.51a27.79,27.79,0,0,0,1.21,7.27c.71,2.33,1.79,4.61,2.74,6.89a48.8,48.8,0,0,0,3.45,6.52c1.34,2,2.81,4.15,4.11,6.31s2.58,4.36,3.73,6.62a110.48,110.48,0,0,1,6,14l2.22,6.42L186.42,153c-4-4.21-8.1-8.32-12.84-11.31a23.87,23.87,0,0,0-7.54-3.23c-1.27-.28-2.8-.45-4.23-.67s-3-.5-4.41-.86a52.35,52.35,0,0,1-16.63-6.67,38.34,38.34,0,0,1-3.65-2.67,19.92,19.92,0,0,1-1.71-1.48,21.8,21.8,0,0,1-1.62-1.57,39.71,39.71,0,0,1-2.94-3.41c-.91-1.19-1.73-2.44-2.53-3.71l0,0,0,0a15.73,15.73,0,0,1-1.39-6.2c0-2.11.25-4.14.39-6.13s.06-4,.09-6.07a21.21,21.21,0,0,1,.82-6c-.82,4,.09,8,.09,12.13,0,2.06-.14,4.08,0,6a15.3,15.3,0,0,0,1.53,5.53l0-.09c.81,1.18,1.65,2.34,2.57,3.43a34.29,34.29,0,0,0,2.92,3.1c.5.51,1.05,1,1.59,1.42a21,21,0,0,0,1.67,1.32,36.19,36.19,0,0,0,3.54,2.35c1.23.72,2.49,1.37,3.76,2s2.6,1.16,4,1.63,2.7.9,4.06,1.31,2.77.72,4.17,1,2.79.53,4.2.79,2.85.35,4.44.67a27.06,27.06,0,0,1,8.55,3.57c5.16,3.31,9.34,7.62,13.36,11.89l-2.48,1.49a110.28,110.28,0,0,0-5.51-13.76c-1.06-2.24-2.17-4.45-3.37-6.62s-2.49-4.24-3.81-6.45a49.42,49.42,0,0,1-3.28-6.9,54.59,54.59,0,0,1-2.37-7.23,29,29,0,0,1-.71-7.58C167.11,101.38,167.42,98.89,167.66,96.39Z" transform="translate(-5.7 -3.32)"/><path class="cls-4" d="M148,43.82c.68,1.72,1.62,4.31,3.26,5.37a8.1,8.1,0,0,0,5.94.52,8.4,8.4,0,0,0,6-6.72c.08-.61-.73-.4-.81.08-.61,3.72-4.86,5.86-8.28,5.54-1.72-.16-2.52-.24-3.51-1.73-.69-1-1.1-2.21-1.88-3.18-.13-.16-.79-.18-.67.12Z" transform="translate(-5.7 -3.32)"/><text class="cls-5" transform="translate(0 183.42)">スクラムマスター</text></svg>