<svg id="Layer_1" data-name="Layer 1" xmlns="http://www.w3.org/2000/svg" viewBox="0 0 291.44 199.44"><defs><style>.cls-1{fill:#1b1d21;}.cls-2{fill:#d5e4ea;}.cls-3{fill:#231f20;}.cls-4{fill:#fff;}.cls-5{font-size:34px;fill:blue;font-family:YuppyTC-Regular-B5pc-H, Yuppy TC;}</style></defs><title>Scrum-Master-middle-text-logo</title><circle class="cls-1" cx="142.66" cy="34.1" r="3.17"/><circle class="cls-1" cx="167.62" cy="34.1" r="3.17"/><path class="cls-2" d="M164.79,72.11c15.54-8.8,21-29.48,15.12-46.14,0-.11-4.24-7.07-4.13-6.39-.52-.44.45,4,.91,4.93,8.41,16.86-6.91,57-30.49,50.92a23.46,23.46,0,0,0,18.36-3.94C165.93,70.71,164.76,72.14,164.79,72.11Z" transform="translate(-2.25 0.1)"/><path class="cls-2" d="M109.52,37.49c.68-7,4.47-21.71,10-24.81C97.33,25.13,107,73.39,133.34,72.91c-11.3-7-20.45-15.49-22.79-26.15A33.49,33.49,0,0,1,109.52,37.49Zm18.29,33.82" transform="translate(-2.25 0.1)"/><path class="cls-2" d="M184,161.26c-6-6.32-12.8-22.79-11.21-40.94-13.85,17.9,37.91,73.28-51.27,24.93,20.94,32.38,58.14,20.27,76.49,45.1-5.16-6.11-11.34-23.3-14-29" transform="translate(-2.25 0.1)"/><path class="cls-2" d="M179.25,80.81a151.87,151.87,0,0,0-7.11-14.91c-1.19,1.12-.75,1.31-1.94,2.44,4.34,7.71,35.67,59.36,12.4,57.94,25.76-2.19.55-46.06-3.35-45.47C176.88,75.26,179.49,80.77,179.25,80.81Zm11.5,27.47c0-.14,0-.07,0,0Z" transform="translate(-2.25 0.1)"/><path class="cls-2" d="M123.43,107.14c-.22,6.41-14.34,20.33-17,17.72C118.06,127.22,123,119.25,123.43,107.14Z" transform="translate(-2.25 0.1)"/><path class="cls-2" d="M98.36,118.39c-.47-6.41,25.37-41.75,22.69-49.31C110.45,83.66,97.48,106.3,98.36,118.39Z" transform="translate(-2.25 0.1)"/><path class="cls-1" d="M125.24,71.43l-2.08-1a31,31,0,0,1-5.55-3.35,22.2,22.2,0,0,1-6.47-7.83,46.44,46.44,0,0,1-2.34-5.8,37.83,37.83,0,0,1-2-6.68,51.82,51.82,0,0,1-.11-15.71,30.49,30.49,0,0,1,.91-4.25,36.93,36.93,0,0,1,1.71-4.14,37.07,37.07,0,0,1,4.76-7.89C118,10.36,122.73,5.67,128.87,3a34.08,34.08,0,0,1,9.61-2.6A57.74,57.74,0,0,1,148.34,0c6.78.3,13.19,3,18.56,6.66a40.72,40.72,0,0,1,12.77,14.09,38,38,0,0,1,3.09,8.55,40.86,40.86,0,0,1,1.52,8.52,35.13,35.13,0,0,1-2.87,15.47,46,46,0,0,1-7.19,11A36,36,0,0,1,166.7,71a23.41,23.41,0,0,1-5.85,2.76,21.56,21.56,0,0,1-2.22.55,21.41,21.41,0,0,0,2.17-.68,22.81,22.81,0,0,0,5.6-3.06,37.27,37.27,0,0,0,7-6.93,37.92,37.92,0,0,0,6.3-11A34.89,34.89,0,0,0,181.7,38a37.73,37.73,0,0,0-1.8-7.89,35.78,35.78,0,0,0-3.19-7.76,37.31,37.31,0,0,0-12-12.54c-4.95-3.28-10.7-5.66-16.66-5.86s-12.36.22-17.68,2.58-9.79,6.35-13.76,10.7a40.44,40.44,0,0,0-4.46,7,36.38,36.38,0,0,0-1.7,3.63,25.25,25.25,0,0,0-1,3.8,49.49,49.49,0,0,0-.59,14.9A40.91,40.91,0,0,0,110.45,53a44.52,44.52,0,0,0,1.91,5.75,21.17,21.17,0,0,0,5.7,7.85,34.09,34.09,0,0,0,5.19,3.73Z" transform="translate(-2.25 0.1)"/><path class="cls-1" d="M120.29,69.08s-2.27,5.33-6.13,13.07c-1.91,3.87-4.22,8.36-6.77,13.11-1.29,2.37-2.57,4.85-4,7.31s-3,5-3.76,7.29a15.65,15.65,0,0,0-.69,7.46,9,9,0,0,0,.63,1.24,10.78,10.78,0,0,0,1.06,1.46,18.84,18.84,0,0,0,2.69,2.59,18.09,18.09,0,0,0,3,1.93,6.3,6.3,0,0,0,1.44.54l.17,0,0,0c-.17,0,0,0,0,0h.12l.47,0h.68a18.37,18.37,0,0,0,6.13-1.86,11.8,11.8,0,0,0,4.31-3.26,18.76,18.76,0,0,0,2.22-3.77c1-2.32,1.4-8.49,1.4-8.49s.09,5.19,0,5.86-.26,1.65-.57,2.9A16.61,16.61,0,0,1,121,121a12.46,12.46,0,0,1-4.5,4.38,18.6,18.6,0,0,1-6.93,2.79c-.35,0-.81.08-1.18.1h-.81l-.3,0a9.47,9.47,0,0,1-2.23-.61,17.48,17.48,0,0,1-3.8-2.13,22.05,22.05,0,0,1-3.37-2.94,14.11,14.11,0,0,1-1.49-1.86,8.74,8.74,0,0,1-1.2-2.56,19.41,19.41,0,0,1,.7-9.48,21.58,21.58,0,0,1,2-4.2l2.14-3.7c1.41-2.46,2.89-4.83,4.27-7.15,2.79-4.62,5.47-8.89,7.83-12.51C116.85,73.75,120.29,69.08,120.29,69.08Z" transform="translate(-2.25 0.1)"/><path class="cls-1" d="M172.33,65.81a96.85,96.85,0,0,1,7.8,12c2.13,3.73,4.45,8.15,7,12.76,1.28,2.31,2.7,4.63,4.14,7a66.9,66.9,0,0,1,4.28,7.63,27.71,27.71,0,0,1,1.51,4.33,15.93,15.93,0,0,1,.57,4.8,17.55,17.55,0,0,1-3.16,8.61,12.12,12.12,0,0,1-3.46,2.93,12.58,12.58,0,0,1-4,1.65,14.27,14.27,0,0,1-7.5-1.22,15.75,15.75,0,0,1-5-3.6,19,19,0,0,1-2.75-3.73,21.55,21.55,0,0,1-1.25-2.66c-.23-.63-.36-1-.36-1a25.17,25.17,0,0,0,2.26,3.18,17.79,17.79,0,0,0,7.93,5.63,13.12,13.12,0,0,0,6,.45,12.37,12.37,0,0,0,5.23-3.73,15.41,15.41,0,0,0,2.17-6.8,12.31,12.31,0,0,0-.52-3.56,25.43,25.43,0,0,0-1.36-3.7A64,64,0,0,0,188,99.57c-1.48-2.43-2.75-4.94-4-7.35-2.39-4.84-4.32-9.45-6-13.37C174.78,71,172.33,65.81,172.33,65.81Z" transform="translate(-2.25 0.1)"/><path class="cls-1" d="M173,120c0,3.23-.06,6.47.07,9.68a36.52,36.52,0,0,0,1.55,9.38c.92,3,2.32,5.94,3.55,8.89a61.67,61.67,0,0,0,4.44,8.4c1.73,2.63,3.63,5.36,5.31,8.15s3.32,5.63,4.81,8.54a143.89,143.89,0,0,1,7.68,18l2.87,8.29L197.25,193c-5.17-5.42-10.45-10.73-16.58-14.59a30.78,30.78,0,0,0-9.71-4.16c-1.64-.35-3.62-.58-5.46-.87s-3.83-.64-5.69-1.1a67.8,67.8,0,0,1-21.46-8.61,51.11,51.11,0,0,1-4.71-3.44,26.39,26.39,0,0,1-2.2-1.91c-.72-.65-1.43-1.31-2.09-2a51,51,0,0,1-3.79-4.39c-1.18-1.54-2.24-3.15-3.26-4.79l0-.07,0,0a20.22,20.22,0,0,1-1.79-8c-.06-2.71.32-5.34.5-7.91s.08-5.19.12-7.82a27.34,27.34,0,0,1,1.06-7.8c-1.06,5.18.11,10.35.11,15.66,0,2.65-.18,5.25.06,7.77a19.74,19.74,0,0,0,2,7.14l-.07-.12c1,1.52,2.13,3,3.31,4.43a49.24,49.24,0,0,0,3.78,4,27.19,27.19,0,0,0,2.05,1.82,25.18,25.18,0,0,0,2.15,1.71,48.22,48.22,0,0,0,4.57,3c1.58.93,3.21,1.76,4.85,2.57s3.35,1.49,5.09,2.09,3.48,1.17,5.24,1.7,3.57.93,5.38,1.29,3.6.68,5.42,1,3.67.45,5.73.87a34.46,34.46,0,0,1,11,4.61c6.66,4.26,12.05,9.83,17.23,15.34l-3.2,1.92a141.63,141.63,0,0,0-7.09-17.76c-1.38-2.88-2.81-5.74-4.36-8.53s-3.21-5.47-4.91-8.32a63.58,63.58,0,0,1-4.23-8.91,69.13,69.13,0,0,1-3.06-9.32,37.52,37.52,0,0,1-.92-9.78C172.33,126.4,172.73,123.19,173,120Z" transform="translate(-2.25 0.1)"/><path class="cls-3" d="M147.78,52.14c.94,2.22,2.15,5.75,4.49,7a11.18,11.18,0,0,0,7.22.48c3.89-1.28,7.08-4.41,7.62-8.47.09-.69-.75-.31-.83.19-.79,4.9-6.46,7.6-10.86,7.18-2-.19-3-.27-4.31-1.93-1.07-1.4-1.62-3.13-2.66-4.54-.13-.17-.79-.18-.67.12Z" transform="translate(-2.25 0.1)"/><rect class="cls-4" y="85.12" width="291.44" height="31.19"/><text class="cls-5" transform="translate(7.45 112.84)">スクラムマスター</text></svg>