<?xml version="1.0" encoding="UTF-8"?>
<svg width="1200pt" height="1200pt" version="1.1" viewBox="0 0 1200 1200" xmlns="http://www.w3.org/2000/svg">
 <g>
  <path d="m727.35 721.5c-2.8711-0.011719-5.4805-1.6602-6.7266-4.2461-1.2422-2.5859-0.90234-5.6523 0.875-7.9023 64.746-80.832 123.84-166.04 176.85-255 1.0312-1.7109 2.7031-2.9414 4.6445-3.4219 1.9414-0.47656 3.9922-0.16406 5.7031 0.87109 3.5625 2.1523 4.7031 6.7852 2.5508 10.348-53.387 89.492-112.88 175.2-178.05 256.5-1.4141 1.793-3.5664 2.8398-5.8477 2.8516z"/>
  <path d="m825 723.3c-2.7617-0.023437-5.2891-1.5664-6.5742-4.0117-1.2852-2.4453-1.125-5.3984 0.42578-7.6875 47.512-70.016 100.48-136.17 158.4-197.85 1.3828-2.4023 3.9805-3.8438 6.75-3.75 27.152 1.0195 52.969-11.797 68.574-34.039 15.605-22.238 18.871-50.875 8.6758-76.062l-24.602 33.602c-8.8945 12.164-23.605 18.66-38.586 17.039-14.984-1.6211-27.965-11.113-34.051-24.902-6.0898-13.785-4.3594-29.773 4.5391-41.938l24.602-33.602-0.003906 0.003906c-23.289-1.7539-46.184 6.7461-62.688 23.273-16.5 16.527-24.969 39.434-23.184 62.719 1.7852 23.289 13.645 44.637 32.473 58.457 3.3555 2.4414 4.0938 7.1445 1.6484 10.5-2.4414 3.3555-7.1445 4.0938-10.5 1.6484-23.738-17.352-38.117-44.711-38.941-74.102-0.82812-29.395 11.988-57.52 34.715-76.176 22.727-18.66 52.809-25.758 81.477-19.223 2.4414 0.57812 4.4336 2.3359 5.3086 4.6875 0.875 2.3516 0.51562 4.9805-0.95703 7.0117l-31.801 43.5c-5.7344 7.8516-6.8438 18.168-2.9102 27.059 3.9297 8.8906 12.309 15.008 21.973 16.051 9.668 1.0391 19.152-3.1562 24.887-11.008l31.801-43.5c1.4727-2.0664 3.9219-3.207 6.4492-3 2.5586 0.12109 4.875 1.5312 6.1523 3.75 17.203 29.297 17.469 65.547 0.69922 95.094s-48.027 47.902-82 48.156c-57.438 60.773-110 125.98-157.2 195-1.2578 1.8789-3.2969 3.0938-5.5508 3.3008z"/>
  <path d="m497.7 546.45c-2.5508-0.003907-4.9219-1.3047-6.3008-3.4492l-125.85-199.2-23.551-24.301c-0.87109-0.92969-1.4883-2.0664-1.8008-3.3008l-12.598-46.199c-0.82422-3.1758 0.51172-6.5195 3.2969-8.25l30.75-19.352c2.6367-1.9258 6.2148-1.9258 8.8516 0l36.449 31.199v0.003906c0.95703 0.85156 1.6836 1.9375 2.1016 3.1484l11.852 31.801 125.7 199.05c2.1953 3.5195 1.1211 8.1523-2.4023 10.348-3.5195 2.1953-8.1523 1.1211-10.348-2.3984l-125.85-199.35v-1.3516l-11.398-30-30.898-26.25-21.449 13.5 10.5 39.148 22.801 23.551 0.89844 1.1992 125.55 198.9c1.4805 2.3086 1.582 5.2383 0.27344 7.6445-1.3125 2.4023-3.832 3.9023-6.5742 3.9062z"/>
  <path d="m560.4 724.05c-2.6719-0.12891-5.0703-1.6719-6.2969-4.0508-29.996-45.422-57.051-92.719-81-141.6-3.4531-7.0391-4.168-15.113-2.0039-22.648 2.1602-7.5391 7.043-14.008 13.703-18.148l60-37.949v-0.003906c6.7305-4.1953 14.777-5.7539 22.59-4.3672 7.8086 1.3828 14.832 5.6133 19.711 11.867 49.695 64.25 93.852 132.59 132 204.3 1.6133 3.5977 0.16797 7.832-3.3086 9.6875-3.4805 1.8594-7.8008 0.70703-9.8945-2.6367-37.762-70.922-81.465-138.51-130.65-202.05-2.5859-3.2969-6.3008-5.5195-10.426-6.2383-4.1289-0.72266-8.375 0.11328-11.926 2.3398l-60 37.949c-3.5352 2.1836-6.1367 5.6016-7.2969 9.5898-1.1641 3.9883-0.80859 8.2695 1 12.012 23.684 48.312 50.438 95.055 80.098 139.95 1.7422 2.3164 1.9922 5.4258 0.64453 7.9922-1.3438 2.5664-4.0508 4.125-6.9453 4.0078z"/>
  <path d="m665.25 722.85c-3.6602-0.027343-6.7656-2.6914-7.3516-6.3008-0.26953-1.4961-0.83203-2.9219-1.6484-4.1992l-85.648-135c-3.3086-4.9141-9.8242-6.4805-15-3.6016l-8.3984 5.25h-0.003906c-4.9141 3.3047-6.4766 9.8242-3.5977 15l72.898 115.35c2.1953 3.5195 1.1211 8.1523-2.3984 10.348-3.5234 2.1953-8.1562 1.1211-10.352-2.3984l-72.898-115.35c-3.6992-5.9141-4.9102-13.051-3.3633-19.852 1.5469-6.8008 5.7188-12.715 11.613-16.449l8.3984-5.25c5.9141-3.6992 13.051-4.9062 19.852-3.3594 6.8008 1.543 12.715 5.7188 16.449 11.609l85.648 135c1.8906 2.9688 3.168 6.2812 3.75 9.75 0.63281 4.0547-2.1055 7.8633-6.1484 8.5508h-1.8008z"/>
  <path d="m530.55 385.65c-7.1055 0.039062-13.973-2.5625-19.27-7.3008-5.293-4.7422-8.6367-11.281-9.3828-18.348l-6.8984-87c-0.62109-7.5781 1.7969-15.094 6.7188-20.891 4.9258-5.7969 11.949-9.3984 19.531-10.008l33.75-2.1016c4.6016-0.42578 9.2266 0.57031 13.25 2.8477 4.0195 2.2812 7.25 5.7344 9.25 9.9023 1.9141 4.3906 5.125 8.0898 9.1992 10.609s8.8164 3.7383 13.602 3.4922l13.648-1.0508c1.3945-0.11328 2.6875-0.78125 3.5859-1.8516 0.90234-1.0703 1.3398-2.457 1.2148-3.8477v-4.9531c-0.41406-5.3086 1.2969-10.566 4.7539-14.617 3.4609-4.0469 8.3867-6.5586 13.695-6.9805l138.6-10.949c36.031-2.8203 71.711 8.7695 99.211 32.219 27.504 23.453 44.578 56.855 47.488 92.879 0.24219 3.3711-1.8047 6.4883-4.9922 7.6094-3.1914 1.1211-6.7344-0.027344-8.6562-2.8086-35.25-52.199-117.6-68.852-155.85-43.801-4.7266 3.3438-8.4844 7.8828-10.883 13.156-2.3984 5.2695-3.3516 11.082-2.7656 16.844l1.8008 23.102h-0.003906c0.16797 1.9883-0.46875 3.9648-1.7617 5.4844-1.2969 1.5195-3.1445 2.4609-5.1367 2.6133l-85.648 6.75c-5.3203 0.45703-10.602-1.2383-14.66-4.707-4.0586-3.4648-6.5586-8.418-6.9414-13.742v-4.9492c-0.11328-1.3945-0.78125-2.6836-1.8516-3.5859-1.0703-0.90234-2.4531-1.3398-3.8477-1.2148l-13.648 1.0508h-0.003906c-4.7812 0.36328-9.3281 2.2266-12.988 5.3242-3.6641 3.0977-6.2578 7.2695-7.4102 11.926-1.2539 4.5234-3.8984 8.5352-7.5586 11.469-3.6641 2.9336-8.1562 4.6406-12.84 4.8828l-32.852 2.5508zm25.801-130.65-33 2.5508c-3.6836 0.26562-7.1016 2.0078-9.4727 4.8359-2.375 2.8242-3.5039 6.4922-3.1289 10.164l6.8984 86.25c0.28516 3.6172 2.0156 6.9727 4.8008 9.3008 2.7383 2.3438 6.3125 3.4766 9.9023 3.1484l32.852-2.5508h-0.003906c3.0898-0.10547 5.8125-2.0586 6.9023-4.9492 1.8984-7.7188 6.1797-14.641 12.242-19.781 6.0586-5.1445 13.582-8.2461 21.508-8.8672l13.648-1.0508c5.375-0.45703 10.711 1.25 14.82 4.7422 4.1094 3.4922 6.6602 8.4805 7.0781 13.855v4.9531c0.24219 2.7578 2.6367 4.8203 5.4023 4.6484l78.301-6.3008-1.1992-15h-0.003906c-0.86328-8.5039 0.57812-17.082 4.1641-24.84 3.5898-7.7578 9.1992-14.41 16.238-19.258 38.102-25.051 112.2-15 157.65 26.25-8.2344-26.258-25.141-48.941-47.949-64.336-22.809-15.398-50.168-22.594-77.602-20.414l-138.6 10.949h0.003906c-2.7617 0.23828-4.8242 2.6367-4.6523 5.3984v4.9492c0.10547 5.0781-1.7031 10.008-5.0664 13.816-3.3633 3.8047-8.0312 6.2109-13.082 6.7344l-13.648 1.0508c-7.8711 0.48438-15.699-1.457-22.434-5.5625-6.7305-4.1016-12.043-10.172-15.219-17.387-1.6016-2.4336-4.4648-3.7227-7.3477-3.3008z"/>
  <path d="m660 632.4c-4.0273 0.003906-7.3398-3.1758-7.5-7.1992l-12-256.05c0-4.1406 3.3594-7.5 7.5-7.5s7.5 3.3594 7.5 7.5l12 256.05c0.082031 1.9922-0.63281 3.9297-1.9844 5.3945-1.3477 1.4609-3.2266 2.3281-5.2148 2.4062z"/>
  <path d="m757.2 677.55c-3.8125 0.027344-7.043-2.8125-7.5-6.6016l-34.5-307.2c-0.45312-4.1406 2.5352-7.8711 6.6758-8.3242 4.1406-0.45703 7.8711 2.5312 8.3242 6.6758l34.801 307.2c0.4375 4.0938-2.5078 7.7773-6.6016 8.25z"/>
  <path d="m649.95 418.35c-4.1406 0-7.5-3.3594-7.5-7.5 0-4.1445 3.3594-7.5 7.5-7.5l77.398-6.1484 0.003906-0.003906c4.1406-0.33203 7.7656 2.7578 8.0977 6.9023 0.33203 4.1406-2.7578 7.7656-6.8984 8.0977l-77.398 6.1484z"/>
  <path d="m650.1 518.55h-68.852c-4.1406 0-7.5-3.3594-7.5-7.5 0-4.1445 3.3594-7.5 7.5-7.5h68.852c4.1406 0 7.5 3.3555 7.5 7.5 0 4.1406-3.3594 7.5-7.5 7.5z"/>
  <path d="m872.55 518.55h-133.2c-4.1445 0-7.5-3.3594-7.5-7.5 0-4.1445 3.3555-7.5 7.5-7.5h133.2c4.1406 0 7.5 3.3555 7.5 7.5 0 4.1406-3.3594 7.5-7.5 7.5z"/>
  <path d="m1020 978.45h-895.05c-4.1406 0-7.5-3.3555-7.5-7.5v-256.5c-0.17969-0.94141-0.17969-1.9062 0-2.8477l85.5-203.55c1.2188-2.793 4.0039-4.5703 7.0508-4.5h270c4.1406 0 7.5 3.3555 7.5 7.5 0 4.1406-3.3594 7.5-7.5 7.5h-264.6l-82.949 197.4v247.5h880.5v-246l-67.949-157.05c-1.6562-3.8086 0.089844-8.2422 3.8984-9.8984 3.8125-1.6562 8.2461 0.089844 9.9023 3.8984l69.301 158.55c0.19922 0.99219 0.19922 2.0117 0 3v255c0.003907 2.0977-0.86719 4.1016-2.4062 5.5273-1.5391 1.4258-3.6055 2.1406-5.6953 1.9727z"/>
  <path d="m511.2 978.45c-4.1406 0-7.5-3.3555-7.5-7.5v-253.5l-88.949-203.4c-1.6562-3.8125 0.089844-8.2422 3.8984-9.9023 3.8125-1.6562 8.2461 0.089843 9.9023 3.9023l90 204.9c0.20312 0.99219 0.20312 2.0117 0 3v255c0 4.0859-3.2656 7.418-7.3516 7.5z"/>
  <path d="m842.4 564.9h-97.797c-4.1445 0-7.5-3.3555-7.5-7.5 0-4.1406 3.3555-7.5 7.5-7.5h97.801-0.003906c4.1445 0 7.5 3.3594 7.5 7.5 0 4.1445-3.3555 7.5-7.5 7.5z"/>
  <path d="m656.85 564.9h-41.852c-4.1406 0-7.5-3.3555-7.5-7.5 0-4.1406 3.3594-7.5 7.5-7.5h41.25c4.1406-0.16406 7.6328 3.0586 7.8008 7.2031 0.16406 4.1406-3.0586 7.6328-7.1992 7.7969z"/>
  <path d="m477.45 564.9h-35.551c-4.1406 0-7.5-3.3555-7.5-7.5 0-4.1406 3.3594-7.5 7.5-7.5h35.551c4.1445 0 7.5 3.3594 7.5 7.5 0 4.1445-3.3555 7.5-7.5 7.5z"/>
  <path d="m1020 723.3h-195c-4.1406 0-7.5-3.3594-7.5-7.5 0-4.1445 3.3594-7.5 7.5-7.5h195c4.1406 0 7.5 3.3555 7.5 7.5 0 4.1406-3.3594 7.5-7.5 7.5z"/>
  <path d="m825 723.3h-62.852c-4.1406 0-7.5-3.3594-7.5-7.5 0-4.1445 3.3594-7.5 7.5-7.5h62.852c4.1406 0 7.5 3.3555 7.5 7.5 0 4.1406-3.3594 7.5-7.5 7.5z"/>
  <path d="m762.15 723.3h-250.95c-4.1406 0-7.5-3.3594-7.5-7.5 0-4.1445 3.3594-7.5 7.5-7.5h250.95c4.1445 0 7.5 3.3555 7.5 7.5 0 4.1406-3.3555 7.5-7.5 7.5z"/>
  <path d="m334.65 652.65h-64.648c-4.1406 0-7.5-3.3555-7.5-7.5v-81.297c0-4.1445 3.3594-7.5 7.5-7.5h65.102c1.9883 0 3.8945 0.78906 5.3008 2.1953s2.1992 3.3125 2.1992 5.3047v81.148c0.042969 2.0938-0.78906 4.1133-2.3008 5.5664-1.5078 1.4531-3.5586 2.2109-5.6523 2.082zm-57.602-15h50.102v-66.297h-50.098v66.148z"/>
 </g>
</svg>
